<svg width="1024" height="1024" viewBox="0 0 1024 1024" fill="none" xmlns="http://www.w3.org/2000/svg">
  <defs>
    <clipPath id="round">
      <rect width="1024" height="1024" rx="220"/>
    </clipPath>
  </defs>

  <g clip-path="url(#round)">
    <rect width="1024" height="1024" fill="#0E0F10"/>
    <g opacity="0.15" stroke="#F1EFE6" stroke-width="1.9" stroke-linecap="round">
      <path d="M178 483 C254 392 360 361 463 414 C550 460 606 560 720 552 C800 546 855 491 892 473"/>
      <path d="M159 506 C246 390 373 348 487 410 C570 456 626 564 739 568 C819 571 879 507 914 489"/>
      <path d="M143 531 C239 385 388 331 514 407 C589 453 648 568 758 589 C839 606 899 535 932 516"/>
      <path d="M137 558 C236 391 405 322 543 410 C609 453 669 570 777 615 C855 647 913 576 948 548"/>
      <path d="M147 586 C249 413 430 323 574 422 C631 463 691 581 795 641 C866 682 929 624 959 592"/>
    </g>
    <path d="M196 535 C256 446 345 422 424 466 C505 510 548 575 636 579 C718 583 781 531 835 478 C779 563 705 621 604 624 C512 627 450 562 374 520 C310 485 253 494 196 535 Z"
          fill="#F1EFE6"/>
  </g>
</svg>
